<?xml version="1.0" standalone="no"?>
<!DOCTYPE svg PUBLIC "-//W3C//DTD SVG 20010904//EN"
 "http://www.w3.org/TR/2001/REC-SVG-20010904/DTD/svg10.dtd">
<svg version="1.0" xmlns="http://www.w3.org/2000/svg"
 width="640.000000pt" height="640.000000pt" viewBox="0 0 640.000000 640.000000"
 preserveAspectRatio="xMidYMid meet">
<metadata>
Created by potrace 1.11, written by Peter Selinger 2001-2013
</metadata>
<g transform="translate(0.000000,640.000000) scale(0.100000,-0.100000)"
fill="#000000" stroke="none">
<path d="M903 4798 c-122 -10 -200 -30 -308 -83 -336 -162 -493 -577 -499
-1324 l-1 -114 155 -39 c138 -35 190 -46 280 -63 14 -3 36 -7 50 -10 14 -3 66
-11 115 -19 50 -8 110 -18 135 -22 50 -8 52 -9 165 -19 78 -7 129 -12 170 -14
11 -1 -43 -34 -120 -74 -110 -56 -141 -77 -143 -94 -3 -22 -1 -22 100 -22 57
0 166 -3 243 -7 247 -13 533 -8 586 10 7 3 32 7 54 10 48 6 181 45 253 74 52
22 52 22 52 1 0 -62 86 -260 162 -372 46 -67 50 -73 130 -168 l58 -67 -16 -44
c-32 -91 -49 -205 -59 -393 -8 -153 -21 -314 -30 -365 -4 -20 220 -144 333
-185 76 -28 82 -32 78 -55 -3 -14 -8 -55 -11 -91 -7 -78 -20 -65 166 -163 162
-84 247 -110 364 -109 50 0 107 5 126 12 20 6 46 13 58 16 37 7 161 71 248
126 91 59 89 56 119 214 18 94 25 330 12 418 -4 26 -4 46 0 43 6 -3 154 -24
297 -41 11 -1 24 -3 28 -4 4 0 6 -52 3 -115 l-5 -115 77 -44 c154 -89 261
-136 347 -152 93 -18 231 0 345 44 65 25 60 24 55 9 -2 -7 -6 -38 -9 -69 l-5
-56 87 -49 c216 -121 314 -156 443 -156 92 -1 159 14 259 57 70 30 196 102
226 128 7 7 20 17 27 24 34 28 50 223 27 326 -20 89 -94 225 -176 327 -42 52
-88 110 -102 128 l-25 33 29 30 c59 62 45 67 299 -96 55 -35 101 -62 102 -61
4 3 -8 39 -71 220 -31 88 -56 163 -56 167 0 4 18 24 40 45 22 21 40 44 40 50
0 20 -18 26 -40 14 -23 -12 -21 -15 -26 70 -6 99 -99 399 -182 585 -58 130
-290 577 -314 604 -9 11 -21 28 -27 39 -6 11 -17 27 -23 34 -7 7 -42 47 -78
88 -89 103 -300 315 -385 387 -132 112 -300 210 -450 263 -426 150 -848 -10
-1205 -456 -256 -319 -349 -463 -400 -619 -29 -89 -36 -96 -44 -44 -4 23 -14
49 -24 56 -49 40 -109 73 -133 73 -29 0 -79 -43 -79 -68 0 -24 -13 -6 -66 93
-26 50 -60 112 -76 138 -15 26 -28 49 -28 51 0 2 -16 33 -36 68 -41 71 -95
169 -136 243 -15 28 -68 131 -119 230 l-92 180 -126 53 c-336 140 -593 218
-876 267 -26 4 -128 13 -220 18 -16 1 -71 -1 -122 -5z"/>
</g>
</svg>
